# xmcd
#
# Track frame offsets: 
#        150
#        9301
#        19675
#        28964
#        37575
#        48839
#        58504
#        69995
#        79026
#        91650
#        99788
#        109976
#        118217
#        128271
#        140441
#        150946
#        159385
#        170337
#
# Disc length: 2381 seconds
#
# Revision: 1
# Processed by: cddbd v1.5.2PL0 Copyright (c) Steve Scherf et al.
# Submitted via: ExactAudioCopy v1.1
#
DISCID=c5094b12
DTITLE=The Buckaroos - The Best of The Buckaroos (1965-70)
DYEAR=2007
DGENRE=Country
TTITLE0=Buckaroo
TTITLE1=You'll Never Miss The Water ('till the well runs dry) 
TTITLE2=Seven Come Eleven
TTITLE3=Tumwater Breakdown
TTITLE4=My Baby's Coming Home
TTITLE5=Apple Jack
TTITLE6=Tom's Waltz
TTITLE7=Highway Man
TTITLE8=Sad Is The Lonely
TTITLE9=Pedal Patter
TTITLE10=Woman Truck Drivin' Fool
TTITLE11=Too Many Chiefs (Not Enough Indians)
TTITLE12=Anywhere U.S.A.
TTITLE13=Moonlight On The Desert
TTITLE14=Bad Luck And Bad Weather
TTITLE15=Sweet-T-Pie
TTITLE16=Cinderella
TTITLE17=Cajun Steel Guitar
EXTD=YEAR: 2007
EXTT0=
EXTT1=
EXTT2=
EXTT3=
EXTT4=
EXTT5=
EXTT6=
EXTT7=
EXTT8=
EXTT9=
EXTT10=
EXTT11=
EXTT12=
EXTT13=
EXTT14=
EXTT15=
EXTT16=
EXTT17=
PLAYORDER=
